<?xml version="1.0" encoding="UTF-8" standalone="no"?>
<!-- Created with Inkscape (http://www.inkscape.org/) -->

<svg
   width="65.725494mm"
   height="11.003101mm"
   viewBox="0 0 65.725494 11.003101"
   version="1.1"
   id="svg5"
   inkscape:version="1.1 (c68e22c387, 2021-05-23)"
   sodipodi:docname="giftxtrade_logo_color.svg"
   xmlns:inkscape="http://www.inkscape.org/namespaces/inkscape"
   xmlns:sodipodi="http://sodipodi.sourceforge.net/DTD/sodipodi-0.dtd"
   xmlns="http://www.w3.org/2000/svg"
   xmlns:svg="http://www.w3.org/2000/svg">
  <sodipodi:namedview
     id="namedview7"
     pagecolor="#ffffff"
     bordercolor="#666666"
     borderopacity="1.0"
     inkscape:pageshadow="2"
     inkscape:pageopacity="0.0"
     inkscape:pagecheckerboard="0"
     inkscape:document-units="mm"
     showgrid="false"
     showguides="true"
     inkscape:guide-bbox="true"
     inkscape:lockguides="true"
     inkscape:zoom="2"
     inkscape:cx="45.5"
     inkscape:cy="-52.75"
     inkscape:window-width="1920"
     inkscape:window-height="1016"
     inkscape:window-x="0"
     inkscape:window-y="27"
     inkscape:window-maximized="1"
     inkscape:current-layer="layer1"
     fit-margin-top="0"
     fit-margin-left="0"
     fit-margin-right="0"
     fit-margin-bottom="0">
    <sodipodi:guide
       position="12,294.00001"
       orientation="0,-1"
       id="guide1730"
       inkscape:locked="true" />
    <sodipodi:guide
       position="23.866935,282.13307"
       orientation="0,-1"
       id="guide1732"
       inkscape:locked="true" />
    <sodipodi:guide
       position="12,282.13307"
       orientation="1,0"
       id="guide1734"
       inkscape:locked="true" />
    <sodipodi:guide
       position="23.866935,294.00001"
       orientation="1,0"
       id="guide1736"
       inkscape:locked="true" />
    <sodipodi:guide
       position="23.866935,292.28483"
       orientation="0,-1"
       id="guide1738"
       inkscape:locked="true" />
    <sodipodi:guide
       position="12,283.84825"
       orientation="0,-1"
       id="guide1740"
       inkscape:locked="true" />
    <sodipodi:guide
       position="17.933497,294.15725"
       orientation="1,0"
       id="guide1742"
       inkscape:locked="true" />
    <sodipodi:guide
       position="23.939457,288.06708"
       orientation="0,-1"
       id="guide1744"
       inkscape:locked="true" />
    <sodipodi:guide
       position="14.958335,291.78386"
       orientation="1,0"
       id="guide12181"
       inkscape:locked="true" />
    <sodipodi:guide
       position="5.5191156,266.87873"
       orientation="1,0"
       id="guide26654"
       inkscape:locked="true" />
    <sodipodi:guide
       position="73.157289,272.4599"
       orientation="0,-1"
       id="guide27250"
       inkscape:locked="true" />
  </sodipodi:namedview>
  <defs
     id="defs2">
    <inkscape:path-effect
       effect="powerclip"
       id="path-effect14683"
       is_visible="true"
       lpeversion="0"
       inverse="true"
       flatten="false"
       hide_clip="false"
       message="Use fill-rule evenodd on &lt;b&gt;fill and stroke&lt;/b&gt; dialog if no flatten result after convert clip to paths." />
    <clipPath
       clipPathUnits="userSpaceOnUse"
       id="clipPath14675">
      <path
         style="display:none;fill:#ffffff;stroke:none;stroke-width:0.264583px;stroke-linecap:butt;stroke-linejoin:miter;stroke-opacity:1"
         d="M 17.933497,4.7151708 H 12 l 5.933272,1.7149276 2.25e-4,-1.7149276"
         id="path14677" />
      <path
         id="lpe_path-effect14683"
         style="fill:#ffffff;stroke:none;stroke-width:0.264583px;stroke-linecap:butt;stroke-linejoin:miter;stroke-opacity:1"
         class="powerclip"
         d="M 7,8.15175 H 22.933497 V 19.86693 H 7 Z M 17.933497,4.7151708 H 12 l 5.933272,1.7149276 2.25e-4,-1.7149276" />
    </clipPath>
    <clipPath
       clipPathUnits="userSpaceOnUse"
       id="clipPath14679">
      <path
         style="fill:#ffffff;stroke:none;stroke-width:0.264583px;stroke-linecap:butt;stroke-linejoin:miter;stroke-opacity:1"
         d="M 17.933497,4.7151708 H 12 l 5.933272,1.7149276 2.25e-4,-1.7149276"
         id="path14681" />
    </clipPath>
  </defs>
  <g
     inkscape:label="Layer 1"
     inkscape:groupmode="layer"
     id="layer1"
     style="display:inline;opacity:1"
     transform="translate(-46.621657,-41.896944)">
    <g
       id="g10916"
       transform="matrix(2.4466724,0,0,2.2793165,30.510158,33.575215)"
       style="stroke:#c83737">
      <path
         style="fill:none;stroke:#c83737;stroke-width:0.665;stroke-linecap:butt;stroke-linejoin:miter;stroke-miterlimit:4;stroke-dasharray:none;stroke-opacity:1"
         d="m 16.578044,8.35338 c 1.547164,-3.8148403 2.54717,-4.8166004 4.605394,-4.2193861 0.742101,0.241562 -0.280944,1.4116581 -3.250166,1.4291209"
         id="path7198"
         sodipodi:nodetypes="ccc" />
      <path
         style="display:inline;fill:none;stroke:#c83737;stroke-width:0.665;stroke-linecap:butt;stroke-linejoin:miter;stroke-miterlimit:4;stroke-dasharray:none;stroke-opacity:1"
         d="M 19.2885,8.3533801 C 17.741336,4.5385397 16.74133,3.5367796 14.683106,4.1339939 13.941005,4.3755559 14.96405,5.545652 17.933272,5.5631148"
         id="path7198-6"
         sodipodi:nodetypes="ccc" />
    </g>
    <path
       style="fill:#ffffff;stroke:none;stroke-width:0.264583px;stroke-linecap:butt;stroke-linejoin:miter;stroke-opacity:1"
       d="M 17.933497,14.86693 12,13.15175 v 1.71518 h 5.933497"
       id="path13399"
       clip-path="url(#clipPath14675)"
       inkscape:path-effect="#path-effect14683" />
    <g
       aria-label="Gift."
       id="text12682"
       style="font-size:10.5833px;line-height:1.25;font-family:'DM Serif Display';-inkscape-font-specification:'DM Serif Display';fill:#333333;stroke-width:0.264583"
       transform="translate(40.866336,24.049987)">
      <path
         d="m 9.395976,27.206119 q -1.0794966,0 -1.9049939,-0.444499 Q 6.676068,26.306538 6.2104028,25.481041 5.7553209,24.64496 5.7553209,23.512547 q 0,-1.100663 0.4550819,-1.92616 0.4550819,-0.825498 1.3123292,-1.28058 0.8678305,-0.465665 2.0954933,-0.465665 0.5609147,0 1.0371637,0.127 0.486831,0.126999 0.920747,0.370415 l 0.04233,1.481662 h -0.105833 l -0.592665,-1.100663 q -0.137583,-0.264582 -0.253999,-0.380999 -0.116416,-0.116416 -0.296332,-0.179916 -0.169333,-0.05292 -0.317499,-0.07408 -0.1375833,-0.03175 -0.3704159,-0.03175 -0.6561646,0 -1.164163,0.349249 -0.4974151,0.349249 -0.7725809,1.111246 -0.2751657,0.761998 -0.2751657,2.000244 0,1.227663 0.2539991,2.000244 0.2645825,0.772581 0.740831,1.132413 0.4762485,0.349249 1.1006632,0.349249 0.09525,0 0.1799161,-0.01058 0.09525,-0.02117 0.1799161,-0.04233 0.201083,-0.03175 0.264582,-0.169333 0.0635,-0.137583 0.0635,-0.328082 v -2.095493 q 0,-0.412749 -0.4233317,-0.507999 L 9.3430595,23.71363 V 23.607797 H 12.32755 v 0.105833 l -0.148166,0.04233 q -0.402166,0.127 -0.402166,0.529165 v 2.296576 q -0.550331,0.306916 -1.121829,0.465665 -0.560915,0.15875 -1.259413,0.15875 z"
         id="path26656"
         style="fill:#333333" />
      <path
         d="m 13.967943,21.215971 q -0.359832,0 -0.613832,-0.222249 -0.243415,-0.232833 -0.243415,-0.582082 0,-0.359832 0.243415,-0.582081 0.254,-0.222249 0.613832,-0.222249 0.359832,0 0.603248,0.222249 0.243416,0.222249 0.243416,0.582081 0,0.349249 -0.243416,0.582082 -0.243416,0.222249 -0.603248,0.222249 z m -1.248829,5.799648 v -0.105833 l 0.148166,-0.04233 q 0.211666,-0.0635 0.285749,-0.190499 0.08467,-0.127 0.08467,-0.338666 v -3.312573 q 0,-0.222249 -0.08467,-0.328082 -0.07408,-0.116416 -0.285749,-0.158749 l -0.148166,-0.03175 v -0.105833 l 1.936743,-0.624415 0.105833,0.105833 -0.03175,1.502829 v 2.963323 q 0,0.211666 0.07408,0.338666 0.08467,0.127 0.285749,0.190499 l 0.105833,0.03175 v 0.105833 z"
         id="path26658"
         style="fill:#333333" />
      <path
         d="m 15.682425,27.015619 v -0.105833 l 0.137583,-0.03175 q 0.201082,-0.05292 0.317499,-0.179916 0.116416,-0.137583 0.116416,-0.349249 0,-0.391582 0,-0.77258 0.01058,-0.391583 0.01058,-0.783165 v -2.656408 h -0.592665 v -0.116416 l 0.232833,-0.04233 q 0.211666,-0.02117 0.306916,-0.148167 0.09525,-0.126999 0.137583,-0.349248 0.105833,-0.412749 0.306915,-0.719665 0.211666,-0.317499 0.476249,-0.582081 0.402165,-0.380999 0.846664,-0.529165 0.455082,-0.15875 0.888997,-0.15875 0.423332,0 0.772581,0.179916 0.349249,0.169333 0.349249,0.571499 0,0.285749 -0.169333,0.455081 -0.169333,0.15875 -0.476249,0.15875 -0.253999,0 -0.465665,-0.137583 -0.211666,-0.137583 -0.412748,-0.486832 l -0.148167,-0.179916 q -0.116416,-0.148166 -0.232832,-0.137583 -0.116417,0 -0.169333,0.169333 -0.07408,0.370416 -0.116416,0.867831 -0.03175,0.497415 -0.03175,0.973663 h 1.185329 v 0.211666 h -1.185329 v 4.190987 q 0,0.402165 0.423332,0.518581 l 0.264582,0.0635 v 0.105833 z"
         id="path26660"
         style="fill:#333333" />
      <path
         d="m 21.30214,27.174369 q -0.677331,0 -1.058329,-0.338666 -0.370416,-0.338665 -0.370416,-1.079496 v -3.619489 h -0.730248 v -0.105833 l 0.254,-0.04233 q 0.328082,-0.07408 0.560914,-0.211666 0.243416,-0.137583 0.476249,-0.370416 l 0.86783,-0.96308 h 0.105833 l -0.03175,1.481662 h 1.185329 v 0.211666 H 21.36564 v 3.809988 q 0,0.370416 0.15875,0.560915 0.169333,0.190499 0.423332,0.190499 0.222249,0 0.391582,-0.105833 0.169333,-0.116416 0.338665,-0.306915 l 0.105833,0.105833 q -0.211666,0.359832 -0.582081,0.571498 -0.370416,0.211666 -0.899581,0.211666 z"
         id="path26662"
         style="fill:#333333" />
      <path
         d="m 24.487694,27.174369 q -0.380998,0 -0.645581,-0.264583 -0.264582,-0.264582 -0.264582,-0.634998 0,-0.370415 0.264582,-0.645581 0.264583,-0.275166 0.645581,-0.275166 0.380999,0 0.645582,0.275166 0.264582,0.275166 0.264582,0.645581 0,0.370416 -0.264582,0.634998 -0.264583,0.264583 -0.645582,0.264583 z"
         id="path26664"
         style="fill:#c83737" />
    </g>
    <g
       aria-label="Trade"
       id="text24394"
       style="font-size:10.5833px;line-height:1.25;font-family:'DM Serif Display';-inkscape-font-specification:'DM Serif Display';fill:#333333;stroke-width:0.264583"
       transform="translate(79.400015,14.466256)">
      <path
         d="m 7.2932706,36.562309 v -0.105833 l 0.4339152,-0.105833 q 0.4339153,-0.09525 0.4339153,-0.529165 V 29.788997 H 7.2615207 q -0.3915821,0 -0.5609149,0.211666 -0.1693328,0.201083 -0.3598322,0.560915 l -0.3809988,0.740831 h -0.105833 l 0.052916,-1.725077 h 6.1065642 l 0.04233,1.725077 h -0.10583 L 11.568924,30.561578 Q 11.389008,30.201746 11.219675,30.000663 11.050342,29.788997 10.65876,29.788997 H 9.7591794 v 6.032481 q 0,0.433916 0.4339156,0.529165 l 0.433915,0.105833 v 0.105833 z"
         id="path26667"
         style="fill:#333333" />
      <path
         d="m 12.108648,36.562309 v -0.105833 l 0.158749,-0.04233 q 0.211666,-0.0635 0.285749,-0.190499 0.08467,-0.127 0.08467,-0.328083 v -3.312572 q 0,-0.232833 -0.08467,-0.338666 -0.07408,-0.116416 -0.285749,-0.158749 l -0.158749,-0.04233 v -0.105833 l 1.820327,-0.613831 0.105833,0.105833 0.09525,0.910164 v 0.08467 q 0.148166,-0.296332 0.380999,-0.539748 0.243416,-0.253999 0.529165,-0.412749 0.296332,-0.158749 0.582081,-0.158749 0.402166,0 0.613832,0.222249 0.211666,0.222249 0.211666,0.560915 0,0.359832 -0.211666,0.560915 -0.201083,0.190499 -0.486832,0.190499 -0.444499,0 -0.783164,-0.444498 l -0.02117,-0.02117 q -0.105833,-0.148166 -0.243416,-0.15875 -0.137583,-0.02117 -0.253999,0.127 -0.105833,0.09525 -0.179916,0.232833 -0.0635,0.126999 -0.127,0.296332 v 2.952741 q 0,0.423332 0.370416,0.529165 l 0.338665,0.09525 v 0.105833 z"
         id="path26669"
         style="fill:#333333" />
      <path
         d="m 18.098776,36.721059 q -0.613831,0 -1.037163,-0.349249 -0.412749,-0.349249 -0.412749,-1.005414 0,-0.497415 0.507999,-0.910163 0.507998,-0.423332 1.598078,-0.634998 0.169333,-0.03175 0.380999,-0.0635 0.211666,-0.04233 0.444498,-0.08467 v -0.83608 q 0,-0.719665 -0.179916,-1.005414 -0.169333,-0.296332 -0.539748,-0.296332 -0.253999,0 -0.402166,0.169333 -0.148166,0.158749 -0.190499,0.560915 l -0.02117,0.116416 q -0.02117,0.455082 -0.222249,0.666748 -0.201083,0.211666 -0.497415,0.211666 -0.275166,0 -0.455082,-0.169333 -0.179916,-0.169333 -0.179916,-0.455082 0,-0.433915 0.296332,-0.730248 0.306916,-0.296332 0.804331,-0.444498 0.497415,-0.148166 1.079497,-0.148166 0.941913,0 1.449912,0.465665 0.518582,0.455082 0.518582,1.492245 v 2.338909 q 0,0.476249 0.444498,0.476249 h 0.232833 l 0.09525,0.08467 q -0.201082,0.253999 -0.444498,0.391582 -0.232833,0.137583 -0.666748,0.137583 -0.465665,0 -0.740831,-0.211666 -0.264583,-0.222249 -0.349249,-0.582081 -0.317499,0.338665 -0.656164,0.582081 -0.328083,0.232833 -0.857248,0.232833 z m 0.645582,-0.645582 q 0.211666,0 0.391582,-0.09525 0.190499,-0.105833 0.444498,-0.317499 v -1.777995 q -0.105833,0.02117 -0.211666,0.04233 -0.105833,0.02117 -0.243416,0.04233 -0.486831,0.126999 -0.783164,0.433915 -0.285749,0.296333 -0.285749,0.804331 0,0.433915 0.201083,0.656164 0.201082,0.211666 0.486832,0.211666 z"
         id="path26671"
         style="fill:#333333" />
      <path
         d="m 24.279419,36.721059 q -0.624414,0 -1.121829,-0.275166 -0.497416,-0.285749 -0.793748,-0.867831 -0.285749,-0.592664 -0.285749,-1.513411 0,-0.931331 0.328082,-1.534579 0.328083,-0.613831 0.867831,-0.910164 0.539748,-0.306915 1.174746,-0.306915 0.370416,0 0.709081,0.07408 0.338666,0.07408 0.603248,0.222249 v -1.375829 q 0,-0.222249 -0.07408,-0.328082 -0.0635,-0.105833 -0.285749,-0.148166 l -0.201083,-0.04233 v -0.105833 l 1.926161,-0.465665 0.116416,0.09525 -0.04233,1.481662 v 5.175233 q 0,0.211666 0.07408,0.349249 0.07408,0.127 0.275166,0.179916 l 0.09525,0.03175 v 0.105833 l -1.809745,0.116417 -0.09525,-0.380999 q -0.285749,0.190499 -0.656165,0.306915 -0.359832,0.116417 -0.804331,0.116417 z m 0.613832,-0.391582 q 0.444498,0 0.814914,-0.264583 v -4.20157 q -0.391582,-0.253999 -0.804331,-0.253999 -0.507998,0 -0.867831,0.592665 -0.359832,0.582081 -0.359832,1.841494 0,1.259413 0.338666,1.777994 0.338665,0.507999 0.878414,0.507999 z"
         id="path26673"
         style="fill:#333333" />
      <path
         d="m 30.766976,31.312993 q 0.687915,0 1.174746,0.285749 0.486832,0.275166 0.740831,0.761997 0.264583,0.476249 0.264583,1.09008 0,0.116416 -0.01058,0.243416 -0.01058,0.116416 -0.04233,0.211666 h -3.153823 q 0.01058,1.142996 0.402165,1.650995 0.402166,0.497415 1.18533,0.497415 0.529165,0 0.857247,-0.169333 0.328083,-0.169333 0.613832,-0.497415 l 0.105833,0.09525 q -0.328083,0.582081 -0.878414,0.910163 -0.539748,0.328083 -1.301746,0.328083 -0.751414,0 -1.333496,-0.317499 -0.582081,-0.328083 -0.910164,-0.931331 -0.328082,-0.603248 -0.328082,-1.439328 0,-0.867831 0.380999,-1.471079 0.380999,-0.613831 0.973663,-0.93133 0.603249,-0.317499 1.259413,-0.317499 z m -0.03175,0.211666 q -0.306915,0 -0.529165,0.190499 -0.211666,0.179916 -0.338665,0.656165 -0.116417,0.465665 -0.127,1.322912 h 1.809744 q 0.105833,-1.15358 -0.08467,-1.661578 -0.190499,-0.507998 -0.730248,-0.507998 z"
         id="path26675"
         style="fill:#333333" />
    </g>
  </g>
</svg>
