<?xml version="1.0" standalone="no"?>
<!DOCTYPE svg PUBLIC "-//W3C//DTD SVG 20010904//EN"
 "http://www.w3.org/TR/2001/REC-SVG-20010904/DTD/svg10.dtd">
<svg version="1.0" xmlns="http://www.w3.org/2000/svg"
 width="400.000000pt" height="400.000000pt" viewBox="0 0 400.000000 400.000000"
 preserveAspectRatio="xMidYMid meet">
<metadata>
Created by potrace 1.14, written by Peter Selinger 2001-2017
</metadata>
<g transform="translate(0.000000,400.000000) scale(0.100000,-0.100000)"
fill="#000000" stroke="none">
<path d="M944 3985 c-462 -85 -798 -402 -917 -864 l-22 -86 0 -1030 c0 -1090
-2 -1025 40 -1195 18 -75 130 -305 165 -340 3 -3 23 -27 45 -55 47 -59 116
-127 165 -164 19 -14 37 -29 40 -32 9 -10 113 -74 165 -101 28 -14 91 -39 140
-56 182 -62 153 -61 1240 -61 952 1 994 2 1085 21 480 101 827 471 900 956 7
51 9 385 7 1065 -3 905 -5 998 -21 1062 -9 39 -19 77 -21 85 -19 77 -117 280
-151 315 -9 8 -12 15 -7 15 4 0 4 4 -2 8 -5 4 -27 28 -47 53 -149 186 -388
338 -600 384 -13 2 -34 7 -48 10 -14 3 -36 8 -50 12 -14 4 -477 8 -1030 9
-785 1 -1020 -1 -1076 -11z"/>
</g>
</svg>
