<?xml version="1.0" encoding="UTF-8" standalone="no"?>
<!-- Created with Inkscape (http://www.inkscape.org/) -->

<svg
   width="109.77763mm"
   height="28.009569mm"
   viewBox="0 0 109.77762 28.009569"
   version="1.1"
   id="svg5"
   inkscape:version="1.1 (c68e22c387, 2021-05-23)"
   sodipodi:docname="logotype_rounded_color.svg"
   xmlns:inkscape="http://www.inkscape.org/namespaces/inkscape"
   xmlns:sodipodi="http://sodipodi.sourceforge.net/DTD/sodipodi-0.dtd"
   xmlns="http://www.w3.org/2000/svg"
   xmlns:svg="http://www.w3.org/2000/svg">
  <sodipodi:namedview
     id="namedview7"
     pagecolor="#ffffff"
     bordercolor="#999999"
     borderopacity="1"
     inkscape:pageshadow="0"
     inkscape:pageopacity="0"
     inkscape:pagecheckerboard="0"
     inkscape:document-units="mm"
     showgrid="false"
     fit-margin-top="0"
     fit-margin-left="0"
     fit-margin-right="0"
     fit-margin-bottom="0"
     inkscape:zoom="1.5037599"
     inkscape:cx="190.85494"
     inkscape:cy="27.264991"
     inkscape:window-width="1600"
     inkscape:window-height="863"
     inkscape:window-x="0"
     inkscape:window-y="180"
     inkscape:window-maximized="1"
     inkscape:current-layer="text3131"
     showguides="true"
     inkscape:guide-bbox="true">
    <sodipodi:guide
       position="38.319488,20.79356"
       orientation="0,-1"
       id="guide849" />
    <sodipodi:guide
       position="38.319488,7.1080296"
       orientation="0,-1"
       id="guide851" />
  </sodipodi:namedview>
  <defs
     id="defs2">
    <inkscape:path-effect
       effect="powerclip"
       id="path-effect14683"
       is_visible="true"
       lpeversion="0"
       inverse="true"
       flatten="false"
       hide_clip="false"
       message="Use fill-rule evenodd on &lt;b&gt;fill and stroke&lt;/b&gt; dialog if no flatten result after convert clip to paths." />
    <clipPath
       clipPathUnits="userSpaceOnUse"
       id="clipPath14675">
      <path
         style="display:none;fill:#ffffff;stroke:none;stroke-width:0.264583px;stroke-linecap:butt;stroke-linejoin:miter;stroke-opacity:1"
         d="M 17.933497,4.7151708 H 12 l 5.933272,1.7149276 2.25e-4,-1.7149276"
         id="path14677" />
    </clipPath>
    <clipPath
       clipPathUnits="userSpaceOnUse"
       id="clipPath14679">
      <path
         style="fill:#ffffff;stroke:none;stroke-width:0.264583px;stroke-linecap:butt;stroke-linejoin:miter;stroke-opacity:1"
         d="M 17.933497,4.7151708 H 12 l 5.933272,1.7149276 2.25e-4,-1.7149276"
         id="path14681" />
    </clipPath>
    <clipPath
       clipPathUnits="userSpaceOnUse"
       id="clipPath14675-9">
      <path
         style="display:none;fill:#ffffff;stroke:none;stroke-width:0.264583px;stroke-linecap:butt;stroke-linejoin:miter;stroke-opacity:1"
         d="M 17.933497,4.7151708 H 12 l 5.933272,1.7149276 2.25e-4,-1.7149276"
         id="path14677-1" />
      <path
         id="lpe_path-effect14683-2"
         style="fill:#ffffff;stroke:none;stroke-width:0.264583px;stroke-linecap:butt;stroke-linejoin:miter;stroke-opacity:1"
         class="powerclip"
         d="M 7,8.15175 H 22.933497 V 19.86693 H 7 Z M 17.933497,4.7151708 H 12 l 5.933272,1.7149276 2.25e-4,-1.7149276" />
    </clipPath>
    <clipPath
       clipPathUnits="userSpaceOnUse"
       id="clipPath14679-7">
      <path
         style="fill:#ffffff;stroke:none;stroke-width:0.264583px;stroke-linecap:butt;stroke-linejoin:miter;stroke-opacity:1"
         d="M 17.933497,4.7151708 H 12 l 5.933272,1.7149276 2.25e-4,-1.7149276"
         id="path14681-0" />
    </clipPath>
    <clipPath
       clipPathUnits="userSpaceOnUse"
       id="clipath_lpe_path-effect14683">
      <path
         style="display:block;fill:#ffffff;stroke:none;stroke-width:0.264583px;stroke-linecap:butt;stroke-linejoin:miter;stroke-opacity:1"
         d="M 17.933497,4.7151708 H 12 l 5.933272,1.7149276 2.25e-4,-1.7149276"
         id="path1161" />
      <path
         id="lpe_path-effect14683-3"
         style="fill:#ffffff;stroke:none;stroke-width:0.264583px;stroke-linecap:butt;stroke-linejoin:miter;stroke-opacity:1"
         class="powerclip"
         d="M 7,8.15175 H 22.933497 V 19.86693 H 7 Z M 17.933497,4.7151708 H 12 l 5.933272,1.7149276 2.25e-4,-1.7149276" />
    </clipPath>
  </defs>
  <g
     inkscape:label="Layer 1"
     inkscape:groupmode="layer"
     id="layer1"
     transform="translate(-27.045885,-50.248634)">
    <g
       inkscape:label="Layer 1"
       id="layer1-5"
       transform="matrix(0.21860081,0,0,0.21860081,17.882184,44.103791)">
      <rect
         style="fill:#c13a38;fill-opacity:1;stroke:none;stroke-width:0.264583"
         id="rect882"
         width="128.13113"
         height="128.13113"
         x="41.919792"
         y="28.109884"
         ry="29.518517" />
      <g
         id="g10916"
         transform="matrix(13.680183,0,0,12.74444,-139.34508,14.884758)"
         style="stroke:#ffffff">
        <path
           style="fill:none;stroke:#ffffff;stroke-width:0.665;stroke-linecap:butt;stroke-linejoin:miter;stroke-miterlimit:4;stroke-dasharray:none;stroke-opacity:1"
           d="m 16.578044,8.35338 c 1.547164,-3.8148403 2.54717,-4.8166004 4.605394,-4.2193861 0.742101,0.241562 -0.280944,1.4116581 -3.250166,1.4291209"
           id="path7198"
           sodipodi:nodetypes="ccc" />
        <path
           style="display:inline;fill:none;stroke:#ffffff;stroke-width:0.665;stroke-linecap:butt;stroke-linejoin:miter;stroke-miterlimit:4;stroke-dasharray:none;stroke-opacity:1"
           d="M 19.2885,8.3533801 C 17.741336,4.5385397 16.74133,3.5367796 14.683106,4.1339939 13.941005,4.3755559 14.96405,5.545652 17.933272,5.5631148"
           id="path7198-6"
           sodipodi:nodetypes="ccc" />
      </g>
    </g>
    <g
       aria-label="GiftTrade"
       id="text3131"
       style="font-size:14.8167px;line-height:1.25;font-family:Inter;-inkscape-font-specification:Inter;stroke-width:0.264583">
      <g
         id="g862"
         transform="translate(0,-0.07345669)">
        <path
           d="m 70.022414,62.45723 q -0.123272,-0.428522 -0.346339,-0.757251 -0.223066,-0.334599 -0.545925,-0.563535 -0.316989,-0.234806 -0.727899,-0.35808 -0.405042,-0.123273 -0.898135,-0.123273 -0.921615,0 -1.620164,0.457872 -0.692679,0.457873 -1.08011,1.332527 -0.38743,0.868783 -0.38743,2.124997 0,1.256214 0.38156,2.136739 0.38156,0.880524 1.080109,1.344266 0.698549,0.457873 1.649515,0.457873 0.862914,0 1.473411,-0.305249 0.616366,-0.311118 0.939225,-0.874653 0.328729,-0.563536 0.328729,-1.332527 l 0.516574,0.07631 h -3.099444 v -1.913671 h 5.030727 v 1.514501 q 0,1.584944 -0.669198,2.723755 -0.669198,1.132941 -1.843231,1.749308 -1.174032,0.610497 -2.688533,0.610497 -1.690606,0 -2.970301,-0.745511 -1.279695,-0.75138 -1.995855,-2.130868 -0.710289,-1.385358 -0.710289,-3.28729 0,-1.46167 0.422651,-2.606351 0.428522,-1.150551 1.197513,-1.948893 0.768991,-0.798343 1.790399,-1.215123 1.021408,-0.416781 2.213051,-0.416781 1.021407,0 1.901932,0.299378 0.880524,0.293507 1.561462,0.833562 0.686809,0.540055 1.121201,1.285565 0.434392,0.73964 0.557665,1.631905 z"
           style="font-weight:bold;-inkscape-font-specification:'Inter Bold';fill:#1a202c;stroke-width:0.295184"
           id="path31029" />
        <path
           d="m 75.141165,70.593271 v -9.016565 h 2.500688 v 9.016565 z M 76.40325,60.414414 q -0.557665,0 -0.956837,-0.36982 -0.39917,-0.37569 -0.39917,-0.898134 0,-0.516574 0.39917,-0.886395 0.399172,-0.37569 0.950966,-0.37569 0.563536,0 0.956837,0.37569 0.399171,0.369821 0.399171,0.886395 0,0.522444 -0.399171,0.898134 -0.393301,0.36982 -0.950966,0.36982 z"
           style="font-weight:bold;-inkscape-font-specification:'Inter Bold';fill:#1a202c;stroke-width:0.295184"
           id="path31031" />
        <path
           d="m 84.486452,61.576706 v 1.878451 H 78.92154 v -1.878451 z m -4.291088,9.016565 v -9.668153 q 0,-0.980317 0.381561,-1.626034 0.387431,-0.645718 1.056628,-0.968576 0.669199,-0.32286 1.520372,-0.32286 0.575276,0 1.050759,0.08805 0.481353,0.08805 0.716159,0.158495 l -0.446131,1.878451 q -0.146755,-0.04696 -0.36395,-0.08805 -0.211326,-0.04109 -0.434393,-0.04109 -0.551795,0 -0.768991,0.258287 -0.217195,0.252417 -0.217195,0.710289 v 9.621193 z"
           style="font-weight:bold;-inkscape-font-specification:'Inter Bold';fill:#1a202c;stroke-width:0.295184"
           id="path31033" />
        <path
           d="m 90.808599,61.576706 v 1.878451 h -5.429898 v -1.878451 z m -4.197163,-2.160219 h 2.500688 v 8.40607 q 0,0.346339 0.105664,0.540054 0.105664,0.187845 0.293507,0.264157 0.193715,0.07631 0.446133,0.07631 0.176104,0 0.352209,-0.02935 0.176105,-0.03522 0.270028,-0.05283 l 0.393301,1.86084 q -0.187846,0.05871 -0.528316,0.135014 -0.340468,0.08218 -0.827692,0.0998 -0.904004,0.03522 -1.584943,-0.240676 -0.675069,-0.275898 -1.050759,-0.857043 -0.37569,-0.581146 -0.369819,-1.46754 z"
           style="font-weight:bold;-inkscape-font-specification:'Inter Bold';fill:#1a202c;stroke-width:0.295184"
           id="path31035" />
        <path
           d="m 91.460143,60.666831 v -2.095647 h 9.873607 v 2.095647 h -3.680588 v 9.92644 h -2.512429 v -9.92644 z"
           style="font-weight:bold;-inkscape-font-specification:'Inter Bold';fill:#1a202c;stroke-width:0.295184"
           id="path31037" />
        <path
           d="m 101.97943,70.593271 v -9.016565 h 2.42438 v 1.573203 h 0.0939 q 0.24654,-0.839433 0.82769,-1.267955 0.58114,-0.434391 1.33839,-0.434391 0.18785,0 0.40504,0.02348 0.2172,0.02349 0.38157,0.06457 v 2.21892 q -0.17611,-0.05283 -0.48723,-0.09393 -0.31111,-0.04109 -0.5694,-0.04109 -0.5518,0 -0.98619,0.240676 -0.42852,0.234807 -0.68094,0.657459 -0.24654,0.422651 -0.24654,0.974446 v 5.101169 z"
           style="font-weight:bold;-inkscape-font-specification:'Inter Bold';fill:#1a202c;stroke-width:0.295184"
           id="path31039" />
        <path
           d="m 111.05352,70.763506 q -0.86292,0 -1.53798,-0.299378 -0.67507,-0.305248 -1.06837,-0.898134 -0.38743,-0.598756 -0.38743,-1.491021 0,-0.751381 0.27589,-1.262084 0.27591,-0.510704 0.75139,-0.821822 0.47548,-0.311119 1.0801,-0.469613 0.6105,-0.158495 1.2797,-0.223067 0.7866,-0.08218 1.26795,-0.152624 0.48136,-0.07631 0.69856,-0.223066 0.21719,-0.146754 0.21719,-0.434391 v -0.03522 q 0,-0.557665 -0.35221,-0.862913 -0.34634,-0.305249 -0.98618,-0.305249 -0.67508,0 -1.07425,0.299379 -0.39917,0.293508 -0.52831,0.73964 l -2.31285,-0.187845 q 0.17611,-0.821823 0.69268,-1.420579 0.51657,-0.604626 1.33253,-0.927486 0.82182,-0.328728 1.90193,-0.328728 0.75139,0 1.4382,0.176104 0.69268,0.176106 1.22685,0.545925 0.54006,0.369821 0.85118,0.950966 0.31112,0.575276 0.31112,1.379488 v 6.081485 h -2.37155 V 69.34293 h -0.0704 q -0.21719,0.422651 -0.58114,0.74551 -0.36395,0.316989 -0.87466,0.498964 -0.5107,0.176104 -1.17989,0.176104 z m 0.71615,-1.725827 q 0.55181,0 0.97445,-0.217195 0.42266,-0.223067 0.66333,-0.598757 0.24068,-0.37569 0.24068,-0.851173 v -0.956836 q -0.1174,0.07631 -0.32286,0.140883 -0.19958,0.05871 -0.452,0.111533 -0.25242,0.04696 -0.50483,0.08805 -0.25242,0.03522 -0.45788,0.06457 -0.44026,0.06457 -0.76899,0.205455 -0.32873,0.140884 -0.5107,0.381561 -0.18198,0.234807 -0.18198,0.587015 0,0.510705 0.36982,0.780732 0.3757,0.264157 0.95096,0.264157 z"
           style="font-weight:bold;-inkscape-font-specification:'Inter Bold';fill:#1a202c;stroke-width:0.295184"
           id="path31041" />
        <path
           d="m 121.39673,70.740026 q -1.02727,0 -1.86084,-0.528314 -0.82768,-0.534185 -1.31491,-1.567333 -0.48135,-1.039018 -0.48135,-2.547649 0,-1.549723 0.49896,-2.577001 0.49896,-1.033148 1.32666,-1.543852 0.83356,-0.516574 1.82561,-0.516574 0.75726,0 1.26209,0.258287 0.51071,0.252416 0.82182,0.633977 0.31699,0.37569 0.48136,0.73964 h 0.0763 v -4.520023 h 2.49481 v 12.022087 h -2.46546 v -1.444058 h -0.10565 q -0.17611,0.37569 -0.49897,0.74551 -0.31699,0.36395 -0.82769,0.604627 -0.50484,0.240676 -1.23274,0.240676 z m 0.79248,-1.989985 q 0.60463,0 1.0214,-0.328728 0.42266,-0.3346 0.64572,-0.933355 0.22894,-0.598757 0.22894,-1.402969 0,-0.804213 -0.22307,-1.397098 -0.22306,-0.592886 -0.64572,-0.915745 -0.42264,-0.32286 -1.02727,-0.32286 -0.61637,0 -1.03902,0.3346 -0.42265,0.334599 -0.63985,0.927485 -0.21719,0.592887 -0.21719,1.373618 0,0.786601 0.21719,1.391227 0.22307,0.598757 0.63985,0.939226 0.42265,0.334599 1.03902,0.334599 z"
           style="font-weight:bold;-inkscape-font-specification:'Inter Bold';fill:#1a202c;stroke-width:0.295184"
           id="path31043" />
        <path
           d="m 132.68505,70.769377 q -1.39124,0 -2.39503,-0.563536 -0.99792,-0.569405 -1.53798,-1.608424 -0.54005,-1.044888 -0.54005,-2.471337 0,-1.391229 0.54005,-2.441987 0.54006,-1.050759 1.52037,-1.637774 0.98619,-0.587016 2.31284,-0.587016 0.89226,0 1.66126,0.287638 0.77486,0.281767 1.35014,0.851173 0.58115,0.569405 0.904,1.432319 0.32286,0.857043 0.32286,2.007594 v 0.686809 h -7.6136 v -1.549722 h 5.25967 q 0,-0.540055 -0.23481,-0.956836 -0.23481,-0.416782 -0.65159,-0.651587 -0.41091,-0.240677 -0.95684,-0.240677 -0.56941,0 -1.00967,0.264157 -0.43439,0.258287 -0.68093,0.698549 -0.24655,0.434391 -0.25241,0.968576 v 1.473411 q 0,0.669197 0.24654,1.156421 0.25241,0.487223 0.71029,0.751381 0.45788,0.264157 1.08598,0.264157 0.41678,0 0.76312,-0.117403 0.34633,-0.117403 0.59288,-0.35221 0.24655,-0.234806 0.37569,-0.575276 l 2.31285,0.152624 q -0.17611,0.833563 -0.72203,1.4558 -0.54006,0.616367 -1.3971,0.962706 -0.85118,0.34047 -1.9665,0.34047 z"
           style="font-weight:bold;-inkscape-font-specification:'Inter Bold';fill:#1a202c;stroke-width:0.295184"
           id="path31045" />
      </g>
    </g>
  </g>
</svg>
